<mxfile host="app.diagrams.net" agent="Mozilla/5.0 (Macintosh; Intel Mac OS X 10_15_7) AppleWebKit/537.36 (KHTML, like Gecko) Chrome/135.0.0.0 Safari/537.36 Edg/135.0.0.0" version="26.2.14">
  <diagram name="第 1 页" id="fe5BLyXdjWbKwDM79IJL">
    <mxGraphModel dx="1418" dy="708" grid="1" gridSize="10" guides="1" tooltips="1" connect="1" arrows="1" fold="1" page="1" pageScale="1" pageWidth="827" pageHeight="1169" math="0" shadow="0">
      <root>
        <mxCell id="0" />
        <mxCell id="1" parent="0" />
        <mxCell id="Hgr4kGL_j6ryAcmCFuus-1" value="" style="rounded=1;whiteSpace=wrap;html=1;" vertex="1" parent="1">
          <mxGeometry x="125" y="230" width="190" height="200" as="geometry" />
        </mxCell>
        <mxCell id="Hgr4kGL_j6ryAcmCFuus-2" value="目标服务&lt;div&gt;（paasm-bussiness-view）&lt;/div&gt;" style="text;html=1;align=center;verticalAlign=middle;whiteSpace=wrap;rounded=0;" vertex="1" parent="1">
          <mxGeometry x="130" y="250" width="180" height="40" as="geometry" />
        </mxCell>
        <mxCell id="Hgr4kGL_j6ryAcmCFuus-5" style="edgeStyle=orthogonalEdgeStyle;rounded=0;orthogonalLoop=1;jettySize=auto;html=1;" edge="1" parent="1" source="Hgr4kGL_j6ryAcmCFuus-3" target="Hgr4kGL_j6ryAcmCFuus-4">
          <mxGeometry relative="1" as="geometry" />
        </mxCell>
        <mxCell id="Hgr4kGL_j6ryAcmCFuus-10" style="edgeStyle=orthogonalEdgeStyle;rounded=0;orthogonalLoop=1;jettySize=auto;html=1;entryX=0.5;entryY=0;entryDx=0;entryDy=0;" edge="1" parent="1" source="Hgr4kGL_j6ryAcmCFuus-3" target="Hgr4kGL_j6ryAcmCFuus-11">
          <mxGeometry relative="1" as="geometry">
            <mxPoint x="525" y="390" as="targetPoint" />
          </mxGeometry>
        </mxCell>
        <mxCell id="Hgr4kGL_j6ryAcmCFuus-3" value="Jacoco" style="rounded=1;whiteSpace=wrap;html=1;" vertex="1" parent="1">
          <mxGeometry x="470" y="310" width="110" height="50" as="geometry" />
        </mxCell>
        <mxCell id="Hgr4kGL_j6ryAcmCFuus-4" value="xxxFilter" style="rounded=0;whiteSpace=wrap;html=1;" vertex="1" parent="1">
          <mxGeometry x="160" y="320" width="80" height="30" as="geometry" />
        </mxCell>
        <mxCell id="Hgr4kGL_j6ryAcmCFuus-6" value="捕获目标服务的 Web 拦截器类" style="text;html=1;align=center;verticalAlign=middle;whiteSpace=wrap;rounded=0;" vertex="1" parent="1">
          <mxGeometry x="280" y="320" width="170" height="10" as="geometry" />
        </mxCell>
        <mxCell id="Hgr4kGL_j6ryAcmCFuus-7" value="" style="endArrow=classic;html=1;rounded=0;exitX=1;exitY=0.75;exitDx=0;exitDy=0;entryX=0.009;entryY=0.64;entryDx=0;entryDy=0;entryPerimeter=0;" edge="1" parent="1" source="Hgr4kGL_j6ryAcmCFuus-4" target="Hgr4kGL_j6ryAcmCFuus-3">
          <mxGeometry width="50" height="50" relative="1" as="geometry">
            <mxPoint x="370" y="440" as="sourcePoint" />
            <mxPoint x="470" y="340" as="targetPoint" />
          </mxGeometry>
        </mxCell>
        <mxCell id="Hgr4kGL_j6ryAcmCFuus-8" value="返回拦截器 Class" style="text;html=1;align=center;verticalAlign=middle;whiteSpace=wrap;rounded=0;" vertex="1" parent="1">
          <mxGeometry x="280" y="350" width="170" height="10" as="geometry" />
        </mxCell>
        <mxCell id="Hgr4kGL_j6ryAcmCFuus-12" style="edgeStyle=orthogonalEdgeStyle;rounded=0;orthogonalLoop=1;jettySize=auto;html=1;entryX=0.5;entryY=0;entryDx=0;entryDy=0;" edge="1" parent="1" source="Hgr4kGL_j6ryAcmCFuus-11" target="Hgr4kGL_j6ryAcmCFuus-13">
          <mxGeometry relative="1" as="geometry">
            <mxPoint x="525" y="470" as="targetPoint" />
          </mxGeometry>
        </mxCell>
        <mxCell id="Hgr4kGL_j6ryAcmCFuus-11" value="拿到拦截器的 doFilter 方法，拿到HttpServletRequest" style="rounded=1;whiteSpace=wrap;html=1;" vertex="1" parent="1">
          <mxGeometry x="470" y="390" width="110" height="50" as="geometry" />
        </mxCell>
        <mxCell id="Hgr4kGL_j6ryAcmCFuus-14" style="edgeStyle=orthogonalEdgeStyle;rounded=0;orthogonalLoop=1;jettySize=auto;html=1;entryX=0.5;entryY=0;entryDx=0;entryDy=0;" edge="1" parent="1" source="Hgr4kGL_j6ryAcmCFuus-13" target="Hgr4kGL_j6ryAcmCFuus-16">
          <mxGeometry relative="1" as="geometry">
            <mxPoint x="525" y="550" as="targetPoint" />
          </mxGeometry>
        </mxCell>
        <mxCell id="Hgr4kGL_j6ryAcmCFuus-13" value="通过切面增强拿到 Header" style="rounded=1;whiteSpace=wrap;html=1;" vertex="1" parent="1">
          <mxGeometry x="470" y="470" width="110" height="50" as="geometry" />
        </mxCell>
        <mxCell id="Hgr4kGL_j6ryAcmCFuus-16" value="将 header 写到线程上下文中" style="rounded=1;whiteSpace=wrap;html=1;" vertex="1" parent="1">
          <mxGeometry x="470" y="550" width="110" height="50" as="geometry" />
        </mxCell>
      </root>
    </mxGraphModel>
  </diagram>
</mxfile>
